PathFileType  4	(X/Y/Z) C:\Users\antoi\Documents\MyRepositories\mobilecap\ResultsAnalysis
DataRate	CameraRate	NumFrames	NumMarkers	Units	OrigDataRate	OrigDataStartFrame	OrigNumFrames
100.0	100.0	5	51	mm	100.0	132	263
Frame#	Time	r_knee			r_shank_antsup			r_ankle			r_calc			r_5meta			r_toe			L_knee			L_shank_antsup			L_ankle			L_calc			L_5meta			L_toe			r_sh2			r_sh3			r_sh4			L_sh2			L_sh3			r_thigh1			r_thigh2			r_thigh3			r_thigh4			r_thigh5			L_thigh1			L_thigh2			L_thigh3			L_thigh4			r.ASIS			r.PSIS			L.ASIS			L.PSIS			C7			R_Shoulder			L_Shoulder			R_Sternum			L_Sternum			R_humerus			R_elbow_med			R_elbow_lat			R_forearm			R_wrist_radius			R_wrist_ulna			L_humerus			L_elbow_med			L_elbow_lat			L_forearm			L_wrist_radius			L_wrist_ulna			R_HJC			L_HJC			R_HJC_reg			L_HJC_reg			
		X1	Y1	Z1	X2	Y2	Z2	X3	Y3	Z3	X4	Y4	Z4	X5	Y5	Z5	X6	Y6	Z6	X7	Y7	Z7	X8	Y8	Z8	X9	Y9	Z9	X10	Y10	Z10	X11	Y11	Z11	X12	Y12	Z12	X13	Y13	Z13	X14	Y14	Z14	X15	Y15	Z15	X16	Y16	Z16	X17	Y17	Z17	X18	Y18	Z18	X19	Y19	Z19	X20	Y20	Z20	X21	Y21	Z21	X22	Y22	Z22	X23	Y23	Z23	X24	Y24	Z24	X25	Y25	Z25	X26	Y26	Z26	X27	Y27	Z27	X28	Y28	Z28	X29	Y29	Z29	X30	Y30	Z30	X31	Y31	Z31	X32	Y32	Z32	X33	Y33	Z33	X34	Y34	Z34	X35	Y35	Z35	X36	Y36	Z36	X37	Y37	Z37	X38	Y38	Z38	X39	Y39	Z39	X40	Y40	Z40	X41	Y41	Z41	X42	Y42	Z42	X43	Y43	Z43	X44	Y44	Z44	X45	Y45	Z45	X46	Y46	Z46	X47	Y47	Z47	X48	Y48	Z48	X49	Y49	Z49	X50	Y50	Z50	X51	Y51	Z51	

132	1.31000000	-272.79315	561.37091	-389.35525	-244.78343	482.04608	-370.29707	-305.92609	123.96332	-393.98201	-371.04824	90.39701	-446.74325	-182.59219	34.14562	-367.35964	-146.20146	58.97763	-427.16331	-312.28694	581.59553	-768.96669	-267.32557	470.93441	-798.48574	-274.91414	136.71016	-788.01718	-341.42249	110.96145	-734.90060	-113.20902	58.69615	-760.06031	-147.06454	28.77721	-818.00442	-249.18392	369.13503	-362.57166	-320.73121	484.88409	-360.07048	-331.32823	369.24899	-361.24461	-357.59657	468.66340	-791.12041	-340.80644	349.10792	-798.37849	-332.18964	883.69739	-370.78947	-279.98768	787.14749	-374.15575	-315.76923	737.60756	-350.05676	-430.48704	825.00336	-374.64705	-368.10130	726.19914	-365.79458	-349.45229	912.62605	-757.44106	-295.25173	785.83996	-770.36214	-457.33264	864.47544	-754.08464	-395.75096	740.75380	-774.21850	-348.39224	1049.72427	-432.30449	-539.42447	1105.20415	-487.27260	-370.12181	1074.89103	-685.24960	-548.77450	1114.84650	-592.95265	-513.23985	1613.48863	-508.42379	-475.19661	1608.22082	-383.01194	-484.64407	1608.45481	-630.84664	-358.49818	1541.43929	-476.80510	-363.78717	1540.19288	-532.90283	-520.91762	1551.95941	-142.44596	-478.49047	1443.84173	-62.99887	-524.25264	1524.88102	-51.11607	-409.83443	1611.54074	-117.22691	-321.53105	1653.12634	-183.16845	-320.18734	1659.82544	-138.95008	-540.82969	1606.95150	-851.18591	-505.12732	1528.13048	-968.47398	-552.98434	1593.94125	-948.55468	-451.15296	1711.58229	-880.62547	-393.60454	1755.47772	-816.96134	-386.10017	1770.34122	-853.38628	-435.39733	975.74248	-437.94674	-451.74047	998.22320	-666.62995	-427.82147	983.96320	-467.63390	-442.59987	999.22473	-634.67917	
133	1.32000000	-243.66443	541.83426	-392.08242	-220.34695	460.92392	-374.36749	-315.32953	109.84061	-399.93399	-381.11415	66.31196	-451.72955	-184.10896	35.97862	-368.09335	-147.18616	59.64152	-428.21990	-284.36007	560.77579	-770.94189	-246.12542	446.38682	-797.51779	-284.80309	116.36442	-778.84724	-351.46834	80.54188	-726.48595	-116.86150	56.77438	-755.60777	-148.77557	29.81806	-818.14354	-235.76949	348.64342	-368.65192	-294.93216	470.95280	-359.78469	-316.90447	357.23050	-359.72141	-336.06726	452.81811	-793.75568	-330.17165	332.37814	-796.70264	-315.45653	861.84222	-370.71128	-260.19040	767.01431	-375.18209	-293.82655	716.32164	-349.22245	-411.79437	799.60607	-371.65263	-345.89591	702.79881	-364.18847	-335.20135	889.39711	-756.85109	-274.87555	765.34565	-771.74839	-440.58715	836.03013	-754.19781	-373.10469	715.76014	-775.30836	-339.68233	1024.31806	-432.25057	-531.87189	1076.69508	-486.83849	-361.43552	1047.83094	-685.44249	-541.22022	1085.06871	-592.53863	-503.05317	1587.29785	-508.85798	-465.22865	1580.12213	-383.35445	-475.47993	1583.59860	-631.32488	-347.59770	1514.54063	-477.07083	-353.08054	1513.24538	-533.10398	-515.20034	1513.75461	-144.87528	-465.40078	1406.71662	-66.71670	-517.32654	1483.72345	-53.61907	-409.52382	1579.28570	-119.05556	-324.59034	1628.22975	-183.70291	-324.02785	1634.26761	-139.11168	-535.23995	1573.05777	-850.94651	-498.87922	1492.93304	-968.52608	-548.37752	1557.97490	-948.54657	-449.06517	1676.36307	-879.53820	-393.12000	1720.69482	-816.12061	-385.77061	1735.99934	-851.81780	-425.34674	948.92604	-437.20106	-442.26994	969.92034	-665.98641	-418.28973	957.80245	-466.87659	-433.08456	971.06047	-634.14969	
134	1.33000000	-221.58408	524.40423	-396.10527	-199.35294	442.15023	-380.84032	-316.55108	101.09034	-405.85220	-383.63086	55.89478	-455.76432	-184.54551	37.06249	-370.15920	-146.79252	58.81034	-430.28146	-254.40969	544.17311	-771.73229	-226.19209	426.71331	-794.61105	-294.17532	103.59927	-769.52453	-360.49807	57.45703	-719.26894	-117.96948	58.53485	-753.75072	-150.37961	32.50055	-817.00913	-220.11581	330.55461	-376.63718	-272.45671	455.53719	-362.09270	-300.53862	343.26183	-362.97452	-314.93483	442.16508	-794.36766	-320.33569	321.39297	-793.44299	-301.96252	842.06128	-370.19021	-244.08298	749.01147	-376.55681	-275.74083	697.02899	-349.88061	-396.21343	777.06290	-369.63741	-327.50345	681.95494	-363.72840	-322.80014	867.89994	-756.34149	-255.93019	748.09956	-774.40960	-425.12090	808.60189	-754.26080	-350.95264	692.62722	-776.18500	-332.81897	998.60258	-432.33528	-526.09213	1050.07810	-487.56946	-353.87438	1020.26390	-685.37434	-535.48348	1056.12536	-591.91142	-492.64034	1564.18942	-509.75030	-455.83806	1553.48801	-381.52237	-464.90536	1562.49828	-631.85023	-337.43295	1488.63159	-477.39401	-342.99602	1487.63649	-532.96046	-508.17054	1474.09340	-146.44309	-451.56540	1367.26466	-71.09934	-508.91620	1440.25788	-55.82571	-407.67493	1543.58349	-120.25667	-325.27089	1598.47125	-183.24240	-326.86440	1604.80790	-138.71416	-529.36667	1537.62750	-851.87577	-492.45771	1454.89891	-968.90221	-543.39563	1519.60756	-949.64942	-445.72046	1638.30627	-879.83871	-391.17955	1683.02303	-816.66657	-383.68961	1698.31970	-851.76573	-418.07216	922.74846	-436.34038	-434.94383	941.78135	-665.30685	-411.17033	933.37512	-465.24622	-426.22146	943.02072	-632.45531	
135	1.34000000	-204.75984	511.97679	-400.55577	-180.68629	428.35541	-386.29782	-314.38109	98.97578	-410.33875	-383.04148	55.10984	-457.50331	-184.74722	38.12522	-371.66206	-146.51952	58.31776	-432.03528	-227.79501	532.33716	-770.35110	-205.75505	415.03336	-790.80440	-294.15801	98.86518	-763.83318	-362.25826	51.14277	-716.13147	-117.62693	58.26899	-752.73678	-150.74946	33.01747	-815.68950	-204.21218	317.73025	-384.61686	-252.97151	443.69362	-366.51386	-284.43321	332.12246	-370.84520	-293.52103	435.44968	-792.67687	-305.48639	315.10182	-790.49408	-292.26566	825.70815	-369.59310	-231.00563	735.34631	-378.82962	-260.54809	681.69692	-353.38907	-383.92773	757.70735	-370.77656	-311.55601	664.82971	-367.38253	-312.65440	850.09843	-756.36082	-239.67863	734.40228	-775.09553	-411.86792	785.21141	-753.46504	-331.56709	673.64774	-776.19057	-328.17935	974.11472	-431.64122	-521.68852	1028.90525	-488.29305	-348.04768	992.77710	-684.48847	-530.94428	1032.37210	-591.59816	-481.52124	1544.25908	-510.85159	-446.82471	1529.17276	-376.86808	-453.22191	1543.87519	-634.16191	-327.46066	1464.70839	-478.30494	-333.02005	1464.30121	-533.37395	-499.63881	1433.30840	-147.11583	-437.04890	1326.16741	-76.95129	-499.06601	1394.97004	-58.45425	-404.30866	1505.30003	-120.61379	-324.25606	1564.84862	-181.68595	-328.50826	1572.39361	-137.46559	-522.92332	1501.52836	-854.26273	-486.11494	1414.53347	-968.54092	-538.39106	1479.16695	-951.22408	-440.98414	1597.72335	-881.42200	-387.33749	1642.40081	-818.34480	-379.61909	1657.78641	-853.10322	-415.16791	899.93923	-434.44170	-431.19448	915.88691	-663.69372	-407.85382	911.68743	-462.61478	-422.82219	917.28366	-629.68428	
136	1.35000000	-184.17083	506.79406	-406.56689	-162.64414	423.74052	-390.64928	-312.06721	101.95334	-411.90378	-382.62919	56.68286	-457.63987	-184.63167	38.64005	-372.09626	-145.87224	58.33713	-432.45670	-205.38183	525.17139	-767.32380	-184.29069	410.24495	-787.45686	-288.77230	100.12047	-762.02063	-360.04109	55.33988	-715.89430	-116.99436	57.25778	-752.32076	-150.36482	32.91172	-815.41143	-191.61096	314.66839	-389.12023	-234.67771	443.17898	-373.44773	-271.20891	332.82645	-377.56035	-271.30741	433.44339	-790.83260	-287.27429	314.03855	-789.18016	-283.97526	813.38978	-369.79936	-218.00022	726.74232	-382.78500	-244.88640	670.97664	-359.26054	-372.10415	741.13663	-374.85382	-294.69795	651.45059	-374.83282	-304.12887	836.81599	-756.60059	-225.22963	724.31840	-771.29499	-400.08244	766.90749	-751.49158	-314.21420	659.63695	-773.76069	-324.93712	953.77522	-429.70868	-517.69978	1013.13181	-487.88849	-343.76546	967.76157	-682.66099	-526.65199	1015.62614	-592.25814	-469.36594	1526.82132	-511.86508	-436.72679	1507.09242	-370.51366	-440.86020	1525.73082	-639.52451	-317.20829	1443.59626	-479.87012	-322.83253	1443.61048	-534.83046	-489.80593	1391.77491	-147.30982	-422.09716	1284.77014	-84.91878	-488.11203	1348.69130	-62.54980	-399.76378	1465.49058	-120.27797	-323.14107	1529.54182	-178.95126	-328.52982	1537.57624	-134.97538	-515.66760	1465.55011	-857.69127	-480.29027	1372.50323	-965.83356	-533.63074	1437.43293	-951.91289	-434.86457	1555.13035	-883.74046	-381.04769	1599.25872	-820.95492	-373.27552	1615.04653	-855.47584	-414.93299	882.33904	-431.37534	-429.64349	894.13843	-660.95818	-406.45735	892.09708	-460.12427	-420.79114	896.08770	-627.14865	
